<svg xmlns="http://www.w3.org/2000/svg" viewBox="0 0 100 100" width="50" height="50">
  <defs>
    <linearGradient id="cloudGradient" x1="0%" y1="0%" x2="100%" y2="100%">
      <stop offset="0%" stop-color="#4A90E2" />
      <stop offset="100%" stop-color="#8ED1FC" />
    </linearGradient>
  </defs>
  <circle cx="50" cy="50" r="45" fill="url(#cloudGradient)" />
  <path d="M30 55c-5 0-9-4-9-9s4-9 9-9c1 0 2 .1 3 .4a12 12 0 0 1 23-1.4c0 .6.5 1 1 1 5 0 9 4 9 9s-4 9-9 9H30z" fill="#fff" />
  <path d="M40 67h20a2 2 0 0 1 2 2v2a2 2 0 0 1-2 2H40a2 2 0 0 1-2-2v-2a2 2 0 0 1 2-2z" fill="#fff" />
</svg>
