<?xml version="1.0" encoding="utf-8"?>
<svg xmlns="http://www.w3.org/2000/svg" class="a-s-If-c c-qd a-s-fa-Ha-pa" width="24px" height="24px" viewBox="0 0 24 24" focusable="false" fill="currentColor" xmlns:bx="https://boxy-svg.com"><defs><bx:export><bx:file format="svg"/></bx:export></defs><path d="M 20 6.949 L 12 6.949 L 10 5.582 L 3.663 5.624 C 2.563 5.624 2.748 5.849 2.748 6.949 L 2.738 18 C 2.738 19.1 2.9 19.241 4 19.241 L 20 19.241 C 21.1 19.241 21.219 19.1 21.219 18 L 21.219 8 C 21.219 6.9 21.1 6.949 20 6.949 Z M 20 18 L 4 18 L 4 8 L 20 8 L 20 18 Z M 12.003 10.485 L 11.422 11.014 L 13.002 12.604 L 8.842 12.604 L 8.842 13.658 L 13.002 13.658 L 11.412 15.248 L 11.964 15.803 L 15.106 13.009 L 12.003 10.485 Z"/></svg>